<svg xmlns="http://www.w3.org/2000/svg" xmlns:xlink="http://www.w3.org/1999/xlink" width="819pt" height="803pt" viewBox="0.00 0.00 818.84 803.43">
<g id="graph0" class="graph" transform="scale(1 1) rotate(0) translate(4 799.4311)">
<title>G</title>
<polygon fill="#ffffff" stroke="transparent" points="-4,4 -4,-799.4311 814.8373,-799.4311 814.8373,4 -4,4"></polygon>
<!-- 1 -->
<g id="node1" class="node">
<title>1</title>
<ellipse fill="none" stroke="#000000" cx="703.4963" cy="-163.6901" rx="27" ry="18"></ellipse>
<text text-anchor="middle" x="703.4963" y="-159.4901" font-family="Times,serif" font-size="14.00" fill="#000000">1</text>
</g>
<!-- 2 -->
<g id="node2" class="node">
<title>2</title>
<ellipse fill="none" stroke="#000000" cx="763.1927" cy="-273.9996" rx="27" ry="18"></ellipse>
<text text-anchor="middle" x="763.1927" y="-269.7996" font-family="Times,serif" font-size="14.00" fill="#000000">2</text>
</g>
<!-- 1&#45;&gt;2 -->
<g id="edge1" class="edge">
<title>1-&gt;2</title>
<path fill="none" stroke="#0000ff" d="M712.8238,-180.926C722.5493,-198.8971 737.9083,-227.278 749.1111,-247.9789"></path>
<polygon fill="#0000ff" stroke="#0000ff" points="746.093,-249.7558 753.9307,-256.8848 752.2493,-246.4242 746.093,-249.7558"></polygon>
</g>
<!-- 3 -->
<g id="node3" class="node">
<title>3</title>
<ellipse fill="none" stroke="#000000" cx="371.3562" cy="-777.4311" rx="27" ry="18"></ellipse>
<text text-anchor="middle" x="371.3562" y="-773.2311" font-family="Times,serif" font-size="14.00" fill="#000000">3</text>
</g>
<!-- 1&#45;&gt;3 -->
<g id="edge2" class="edge">
<title>1-&gt;3</title>
<path fill="none" stroke="#ff0000" d="M694.2663,-180.7456C647.9876,-266.2612 441.2246,-648.3257 385.3262,-751.6168"></path>
<polygon fill="#ff0000" stroke="#ff0000" points="382.223,-749.9975 380.5416,-760.4581 388.3793,-753.3291 382.223,-749.9975"></polygon>
</g>
<!-- 4 -->
<g id="node4" class="node">
<title>4</title>
<ellipse fill="none" stroke="#000000" cx="144.7646" cy="-117.3923" rx="27" ry="18"></ellipse>
<text text-anchor="middle" x="144.7646" y="-113.1923" font-family="Times,serif" font-size="14.00" fill="#000000">4</text>
</g>
<!-- 2&#45;&gt;4 -->
<g id="edge3" class="edge">
<title>2-&gt;4</title>
<path fill="none" stroke="#0000ff" d="M737.7967,-267.5684C640.5966,-242.954 292.0426,-154.6882 179.8342,-126.2731"></path>
<polygon fill="#0000ff" stroke="#0000ff" points="180.5844,-122.8527 170.0311,-123.7906 178.8659,-129.6385 180.5844,-122.8527"></polygon>
</g>
<!-- 5 -->
<g id="node5" class="node">
<title>5</title>
<ellipse fill="none" stroke="#000000" cx="611.2169" cy="-78.741" rx="27" ry="18"></ellipse>
<text text-anchor="middle" x="611.2169" y="-74.541" font-family="Times,serif" font-size="14.00" fill="#000000">5</text>
</g>
<!-- 2&#45;&gt;5 -->
<g id="edge4" class="edge">
<title>2-&gt;5</title>
<path fill="none" stroke="#0000ff" d="M750.7559,-258.0207C724.1501,-223.8376 661.5731,-143.4386 630.0555,-102.9448"></path>
<polygon fill="#0000ff" stroke="#0000ff" points="632.7297,-100.6822 623.8255,-94.9406 627.2057,-104.9818 632.7297,-100.6822"></polygon>
</g>
<!-- 6 -->
<g id="node6" class="node">
<title>6</title>
<ellipse fill="none" stroke="#000000" cx="703.4963" cy="-631.741" rx="27" ry="18"></ellipse>
<text text-anchor="middle" x="703.4963" y="-627.541" font-family="Times,serif" font-size="14.00" fill="#000000">6</text>
</g>
<!-- 3&#45;&gt;6 -->
<g id="edge5" class="edge">
<title>3-&gt;6</title>
<path fill="none" stroke="#ff0000" d="M393.9244,-767.5318C451.6773,-742.1991 604.9599,-674.9631 671.6998,-645.6882"></path>
<polygon fill="#ff0000" stroke="#ff0000" points="673.1452,-648.8762 680.897,-641.654 670.3333,-642.4658 673.1452,-648.8762"></polygon>
</g>
<!-- 7 -->
<g id="node7" class="node">
<title>7</title>
<ellipse fill="none" stroke="#000000" cx="496.3545" cy="-767.0735" rx="27" ry="18"></ellipse>
<text text-anchor="middle" x="496.3545" y="-762.8735" font-family="Times,serif" font-size="14.00" fill="#000000">7</text>
</g>
<!-- 3&#45;&gt;7 -->
<g id="edge6" class="edge">
<title>3-&gt;7</title>
<path fill="none" stroke="#ff0000" d="M398.1715,-775.2092C415.9272,-773.7379 439.4613,-771.7878 459.0375,-770.1657"></path>
<polygon fill="#ff0000" stroke="#ff0000" points="459.4755,-773.6415 469.1523,-769.3275 458.8974,-766.6654 459.4755,-773.6415"></polygon>
</g>
<!-- 8 -->
<g id="node8" class="node">
<title>8</title>
<ellipse fill="none" stroke="#000000" cx="67.726" cy="-216.3716" rx="27" ry="18"></ellipse>
<text text-anchor="middle" x="67.726" y="-212.1716" font-family="Times,serif" font-size="14.00" fill="#000000">8</text>
</g>
<!-- 4&#45;&gt;8 -->
<g id="edge7" class="edge">
<title>4-&gt;8</title>
<path fill="none" stroke="#0000ff" d="M132.0432,-133.7367C119.7031,-149.5914 100.8252,-173.8456 86.7086,-191.9827"></path>
<polygon fill="#0000ff" stroke="#0000ff" points="83.5908,-190.2901 80.2106,-200.3313 89.1148,-194.5896 83.5908,-190.2901"></polygon>
</g>
<!-- 9 -->
<g id="node9" class="node">
<title>9</title>
<ellipse fill="none" stroke="#000000" cx="249.7676" cy="-48.7904" rx="27" ry="18"></ellipse>
<text text-anchor="middle" x="249.7676" y="-44.5904" font-family="Times,serif" font-size="14.00" fill="#000000">9</text>
</g>
<!-- 4&#45;&gt;9 -->
<g id="edge8" class="edge">
<title>4-&gt;9</title>
<path fill="none" stroke="#0000ff" d="M164.5149,-104.4888C180.7499,-93.8819 203.9418,-78.7299 222.0388,-66.9066"></path>
<polygon fill="#0000ff" stroke="#0000ff" points="224.0033,-69.8039 230.4607,-61.4043 220.1747,-63.9437 224.0033,-69.8039"></polygon>
</g>
<!-- 10 -->
<g id="node10" class="node">
<title>10</title>
<ellipse fill="none" stroke="#000000" cx="496.3545" cy="-28.3577" rx="27" ry="18"></ellipse>
<text text-anchor="middle" x="496.3545" y="-24.1577" font-family="Times,serif" font-size="14.00" fill="#000000">10</text>
</g>
<!-- 5&#45;&gt;10 -->
<g id="edge9" class="edge">
<title>5-&gt;10</title>
<path fill="none" stroke="#0000ff" d="M588.5238,-68.7868C571.2972,-61.2306 547.3915,-50.7446 528.2432,-42.3453"></path>
<polygon fill="#0000ff" stroke="#0000ff" points="529.5642,-39.1029 519.0005,-38.2911 526.7522,-45.5133 529.5642,-39.1029"></polygon>
</g>
<!-- 11 -->
<g id="node11" class="node">
<title>11</title>
<ellipse fill="none" stroke="#000000" cx="27" cy="-335.0022" rx="27" ry="18"></ellipse>
<text text-anchor="middle" x="27" y="-330.8022" font-family="Times,serif" font-size="14.00" fill="#000000">11</text>
</g>
<!-- 5&#45;&gt;11 -->
<g id="edge10" class="edge">
<title>5-&gt;11</title>
<path fill="none" stroke="#0000ff" d="M588.3149,-88.7867C497.6873,-128.5396 163.9805,-274.917 58.902,-321.0087"></path>
<polygon fill="#0000ff" stroke="#0000ff" points="57.4955,-317.8037 49.7437,-325.0259 60.3074,-324.2141 57.4955,-317.8037"></polygon>
</g>
<!-- 12 -->
<g id="node12" class="node">
<title>12</title>
<ellipse fill="none" stroke="#000000" cx="783.8373" cy="-397.7156" rx="27" ry="18"></ellipse>
<text text-anchor="middle" x="783.8373" y="-393.5156" font-family="Times,serif" font-size="14.00" fill="#000000">12</text>
</g>
<!-- 6&#45;&gt;12 -->
<g id="edge11" class="edge">
<title>6-&gt;12</title>
<path fill="none" stroke="#ff0000" d="M709.5349,-614.1511C723.4352,-573.661 757.7774,-473.6255 774.4522,-425.0533"></path>
<polygon fill="#ff0000" stroke="#ff0000" points="777.7919,-426.1043 777.7286,-415.5096 771.1712,-423.8313 777.7919,-426.1043"></polygon>
</g>
<!-- 13 -->
<g id="node13" class="node">
<title>13</title>
<ellipse fill="none" stroke="#000000" cx="249.7676" cy="-746.6407" rx="27" ry="18"></ellipse>
<text text-anchor="middle" x="249.7676" y="-742.4407" font-family="Times,serif" font-size="14.00" fill="#000000">13</text>
</g>
<!-- 6&#45;&gt;13 -->
<g id="edge12" class="edge">
<title>6-&gt;13</title>
<path fill="none" stroke="#ff0000" d="M678.1296,-638.1647C601.6547,-657.5308 373.2055,-715.382 285.0309,-737.7108"></path>
<polygon fill="#ff0000" stroke="#ff0000" points="284.07,-734.3436 275.2352,-740.1914 285.7884,-741.1294 284.07,-734.3436"></polygon>
</g>
<!-- 14 -->
<g id="node14" class="node">
<title>14</title>
<ellipse fill="none" stroke="#000000" cx="144.7646" cy="-678.0388" rx="27" ry="18"></ellipse>
<text text-anchor="middle" x="144.7646" y="-673.8388" font-family="Times,serif" font-size="14.00" fill="#000000">14</text>
</g>
<!-- 7&#45;&gt;14 -->
<g id="edge13" class="edge">
<title>7-&gt;14</title>
<path fill="none" stroke="#ff0000" d="M471.069,-760.6703C409.3889,-745.0508 251.078,-704.961 180.1086,-686.9892"></path>
<polygon fill="#ff0000" stroke="#ff0000" points="180.8466,-683.5656 170.2934,-684.5036 179.1282,-690.3514 180.8466,-683.5656"></polygon>
</g>
<!-- 15 -->
<g id="node15" class="node">
<title>15</title>
<ellipse fill="none" stroke="#000000" cx="611.2169" cy="-716.6902" rx="27" ry="18"></ellipse>
<text text-anchor="middle" x="611.2169" y="-712.4902" font-family="Times,serif" font-size="14.00" fill="#000000">15</text>
</g>
<!-- 7&#45;&gt;15 -->
<g id="edge14" class="edge">
<title>7-&gt;15</title>
<path fill="none" stroke="#ff0000" d="M519.0476,-757.1194C536.2741,-749.5631 560.1798,-739.0771 579.3281,-730.6779"></path>
<polygon fill="#ff0000" stroke="#ff0000" points="580.8191,-733.8458 588.5709,-726.6236 578.0072,-727.4354 580.8191,-733.8458"></polygon>
</g>
<!-- 17 -->
<g id="node16" class="node">
<title>17</title>
<ellipse fill="none" stroke="#000000" cx="67.726" cy="-579.0596" rx="27" ry="18"></ellipse>
<text text-anchor="middle" x="67.726" y="-574.8596" font-family="Times,serif" font-size="14.00" fill="#000000">17</text>
</g>
<!-- 8&#45;&gt;17 -->
<g id="edge15" class="edge">
<title>8-&gt;17</title>
<path fill="none" stroke="#0000ff" d="M67.726,-234.8559C67.726,-294.1715 67.726,-479.9771 67.726,-551.0388"></path>
<polygon fill="#0000ff" stroke="#0000ff" points="64.2261,-551.0428 67.726,-561.0428 71.2261,-551.0429 64.2261,-551.0428"></polygon>
</g>
<!-- 18 -->
<g id="node17" class="node">
<title>18</title>
<ellipse fill="none" stroke="#000000" cx="27" cy="-460.4289" rx="27" ry="18"></ellipse>
<text text-anchor="middle" x="27" y="-456.2289" font-family="Times,serif" font-size="14.00" fill="#000000">18</text>
</g>
<!-- 8&#45;&gt;18 -->
<g id="edge16" class="edge">
<title>8-&gt;18</title>
<path fill="none" stroke="#0000ff" d="M64.7313,-234.3177C57.7,-276.4542 40.0934,-381.9642 31.6538,-432.5404"></path>
<polygon fill="#0000ff" stroke="#0000ff" points="28.1928,-432.0167 29.9991,-442.4565 35.0974,-433.169 28.1928,-432.0167"></polygon>
</g>
<!-- 9&#45;&gt;18 -->
<g id="edge18" class="edge">
<title>9-&gt;18</title>
<path fill="none" stroke="#0000ff" d="M240.4792,-65.9539C205.7336,-130.1582 83.2656,-356.4592 41.2627,-434.0737"></path>
<polygon fill="#0000ff" stroke="#0000ff" points="38.0094,-432.7315 36.3281,-443.1921 44.1658,-436.0632 38.0094,-432.7315"></polygon>
</g>
<!-- 16 -->
<g id="node18" class="node">
<title>16</title>
<ellipse fill="none" stroke="#000000" cx="371.3562" cy="-18" rx="27" ry="18"></ellipse>
<text text-anchor="middle" x="371.3562" y="-13.8" font-family="Times,serif" font-size="14.00" fill="#000000">16</text>
</g>
<!-- 9&#45;&gt;16 -->
<g id="edge17" class="edge">
<title>9-&gt;16</title>
<path fill="none" stroke="#0000ff" d="M275.2566,-42.3357C292.9278,-37.8608 316.6894,-31.8435 336.1631,-26.9121"></path>
<polygon fill="#0000ff" stroke="#0000ff" points="337.066,-30.294 345.9008,-24.4462 335.3476,-23.5082 337.066,-30.294"></polygon>
</g>
<!-- 10&#45;&gt;18 -->
<g id="edge20" class="edge">
<title>10-&gt;18</title>
<path fill="none" stroke="#0000ff" d="M480.4693,-42.981C410.9723,-106.9575 133.4672,-362.419 50.5277,-438.7701"></path>
<polygon fill="#0000ff" stroke="#0000ff" points="48.109,-436.2394 43.1222,-445.5873 52.85,-441.3895 48.109,-436.2394"></polygon>
</g>
<!-- 10&#45;&gt;16 -->
<g id="edge19" class="edge">
<title>10-&gt;16</title>
<path fill="none" stroke="#0000ff" d="M469.5392,-26.1357C451.7836,-24.6644 428.2494,-22.7143 408.6733,-21.0922"></path>
<polygon fill="#0000ff" stroke="#0000ff" points="408.8134,-17.5919 398.5585,-20.254 408.2352,-24.568 408.8134,-17.5919"></polygon>
</g>
<!-- 11&#45;&gt;17 -->
<g id="edge21" class="edge">
<title>11-&gt;17</title>
<path fill="none" stroke="#0000ff" d="M29.9947,-352.9484C37.026,-395.0849 54.6325,-500.5948 63.0722,-551.1711"></path>
<polygon fill="#0000ff" stroke="#0000ff" points="59.6286,-551.7997 64.7269,-561.0872 66.5331,-550.6474 59.6286,-551.7997"></polygon>
</g>
<!-- 11&#45;&gt;18 -->
<g id="edge22" class="edge">
<title>11-&gt;18</title>
<path fill="none" stroke="#0000ff" d="M27,-353.2404C27,-373.955 27,-408.0075 27,-432.168"></path>
<polygon fill="#0000ff" stroke="#0000ff" points="23.4999,-432.1688 27,-442.1688 30.4999,-432.1687 23.4999,-432.1688"></polygon>
</g>
<!-- 12&#45;&gt;17 -->
<g id="edge23" class="edge">
<title>12-&gt;17</title>
<path fill="none" stroke="#ff0000" d="M758.3505,-404.1697C650.1445,-431.5712 228.6105,-538.3181 103.1461,-570.09"></path>
<polygon fill="#ff0000" stroke="#ff0000" points="102.1151,-566.7405 93.2803,-572.5884 103.8335,-573.5263 102.1151,-566.7405"></polygon>
</g>
<!-- 19 -->
<g id="node19" class="node">
<title>19</title>
<ellipse fill="none" stroke="#000000" cx="763.1927" cy="-521.4316" rx="27" ry="18"></ellipse>
<text text-anchor="middle" x="763.1927" y="-517.2316" font-family="Times,serif" font-size="14.00" fill="#000000">19</text>
</g>
<!-- 12&#45;&gt;19 -->
<g id="edge24" class="edge">
<title>12-&gt;19</title>
<path fill="none" stroke="#ff0000" d="M780.8354,-415.7049C777.4259,-436.137 771.821,-469.7251 767.8443,-493.5561"></path>
<polygon fill="#ff0000" stroke="#ff0000" points="764.392,-492.9808 766.1983,-503.4205 771.2966,-494.133 764.392,-492.9808"></polygon>
</g>
<!-- 13&#45;&gt;17 -->
<g id="edge25" class="edge">
<title>13-&gt;17</title>
<path fill="none" stroke="#ff0000" d="M233.6126,-731.769C201.2799,-702.0046 128.5082,-635.0135 91.0213,-600.5044"></path>
<polygon fill="#ff0000" stroke="#ff0000" points="93.3126,-597.8565 83.5848,-593.6587 88.5716,-603.0066 93.3126,-597.8565"></polygon>
</g>
<!-- 13&#45;&gt;18 -->
<g id="edge26" class="edge">
<title>13-&gt;18</title>
<path fill="none" stroke="#ff0000" d="M237.1524,-730.4327C199.8574,-682.516 89.9703,-541.3332 45.7493,-484.5179"></path>
<polygon fill="#ff0000" stroke="#ff0000" points="48.381,-482.2008 39.4769,-476.4592 42.857,-486.5004 48.381,-482.2008"></polygon>
</g>
<!-- 14&#45;&gt;17 -->
<g id="edge27" class="edge">
<title>14-&gt;17</title>
<path fill="none" stroke="#ff0000" d="M132.0432,-661.6944C119.7031,-645.8397 100.8252,-621.5855 86.7086,-603.4485"></path>
<polygon fill="#ff0000" stroke="#ff0000" points="89.1148,-600.8415 80.2106,-595.0999 83.5908,-605.141 89.1148,-600.8415"></polygon>
</g>
<!-- 14&#45;&gt;18 -->
<g id="edge28" class="edge">
<title>14-&gt;18</title>
<path fill="none" stroke="#ff0000" d="M135.5238,-660.9633C114.9714,-622.9858 65.3718,-531.3337 40.9968,-486.2927"></path>
<polygon fill="#ff0000" stroke="#ff0000" points="44.0356,-484.554 36.1979,-477.4251 37.8792,-487.8856 44.0356,-484.554"></polygon>
</g>
<!-- 15&#45;&gt;17 -->
<g id="edge29" class="edge">
<title>15-&gt;17</title>
<path fill="none" stroke="#ff0000" d="M585.7321,-710.2366C497.4726,-687.8862 204.7083,-613.7482 102.9481,-587.979"></path>
<polygon fill="#ff0000" stroke="#ff0000" points="103.7088,-584.5613 93.1555,-585.4992 101.9903,-591.3471 103.7088,-584.5613"></polygon>
</g>
<!-- 15&#45;&gt;19 -->
<g id="edge30" class="edge">
<title>15-&gt;19</title>
<path fill="none" stroke="#ff0000" d="M623.6537,-700.7113C650.2595,-666.5282 712.8366,-586.1292 744.3541,-545.6354"></path>
<polygon fill="#ff0000" stroke="#ff0000" points="747.2039,-547.6724 750.5841,-537.6312 741.6799,-543.3728 747.2039,-547.6724"></polygon>
</g>
<!-- 17&#45;&gt;4 -->
<g id="edge33" class="edge">
<title>17-&gt;4</title>
<path fill="none" stroke="#0000ff" d="M70.746,-560.9617C82.5643,-490.1382 125.7305,-231.4576 140.0863,-145.4279"></path>
<polygon fill="#0000ff" stroke="#0000ff" points="143.5717,-145.8048 141.7655,-135.3651 136.6672,-144.6526 143.5717,-145.8048"></polygon>
</g>
<!-- 17&#45;&gt;5 -->
<g id="edge34" class="edge">
<title>17-&gt;5</title>
<path fill="none" stroke="#0000ff" d="M83.6973,-564.357C160.9606,-493.2311 495.9798,-184.8241 587.8444,-100.2569"></path>
<polygon fill="#0000ff" stroke="#0000ff" points="590.2579,-102.7923 595.2447,-93.4444 585.5169,-97.6422 590.2579,-102.7923"></polygon>
</g>
<!-- 18&#45;&gt;6 -->
<g id="edge35" class="edge">
<title>18-&gt;6</title>
<path fill="none" stroke="#ff0000" d="M52.2848,-466.8319C155.8859,-493.0672 548.1128,-592.3926 668.2842,-622.8241"></path>
<polygon fill="#ff0000" stroke="#ff0000" points="667.5313,-626.2439 678.0845,-625.3059 669.2497,-619.4581 667.5313,-626.2439"></polygon>
</g>
<!-- 18&#45;&gt;7 -->
<g id="edge36" class="edge">
<title>18-&gt;7</title>
<path fill="none" stroke="#ff0000" d="M46.57,-473.2146C120.382,-521.4384 382.0891,-692.4202 468.4654,-748.8526"></path>
<polygon fill="#ff0000" stroke="#ff0000" points="466.6749,-751.8636 476.9609,-754.403 470.5035,-746.0034 466.6749,-751.8636"></polygon>
</g>
<!-- 16&#45;&gt;4 -->
<g id="edge31" class="edge">
<title>16-&gt;4</title>
<path fill="none" stroke="#00ff00" d="M348.3824,-28.0772C307.7318,-45.9083 223.0583,-83.0495 176.7354,-103.3686"></path>
<polygon fill="#00ff00" stroke="#00ff00" points="175.2141,-100.2139 167.4623,-107.4362 178.026,-106.6244 175.2141,-100.2139"></polygon>
</g>
<!-- 16&#45;&gt;5 -->
<g id="edge32" class="edge">
<title>16-&gt;5</title>
<path fill="none" stroke="#00ff00" d="M397.0255,-24.5003C440.1262,-35.4149 527.1048,-57.4409 575.9235,-69.8035"></path>
<polygon fill="#00ff00" stroke="#00ff00" points="575.1789,-73.2253 585.7321,-72.2874 576.8974,-66.4395 575.1789,-73.2253"></polygon>
</g>
<!-- 19&#45;&gt;6 -->
<g id="edge37" class="edge">
<title>19-&gt;6</title>
<path fill="none" stroke="#a020f0" d="M753.8652,-538.6674C744.1397,-556.6385 728.7807,-585.0194 717.5779,-605.7204"></path>
<polygon fill="#a020f0" stroke="#a020f0" points="714.4397,-604.1656 712.7583,-614.6262 720.596,-607.4973 714.4397,-604.1656"></polygon>
</g>
<!-- 19&#45;&gt;7 -->
<g id="edge38" class="edge">
<title>19-&gt;7</title>
<path fill="none" stroke="#a020f0" d="M747.2999,-536.062C702.2643,-577.5202 573.6074,-695.9572 520.1225,-745.1935"></path>
<polygon fill="#a020f0" stroke="#a020f0" points="517.4882,-742.8613 512.5014,-752.2092 522.2292,-748.0114 517.4882,-742.8613"></polygon>
</g>
</g>
</svg>