<svg xmlns="http://www.w3.org/2000/svg" xmlns:xlink="http://www.w3.org/1999/xlink" width="525pt" height="908pt" viewBox="0.00 0.00 525.00 908.00">
<g id="graph0" class="graph" transform="scale(1 1) rotate(0) translate(4 904)">
<title>G</title>
<polygon fill="#ffffff" stroke="transparent" points="-4,4 -4,-904 521,-904 521,4 -4,4"></polygon>
<!-- 1 -->
<g id="node1" class="node">
<title>1</title>
<ellipse fill="none" stroke="#000000" cx="325" cy="-882" rx="27" ry="18"></ellipse>
<text text-anchor="middle" x="325" y="-877.8" font-family="Times,serif" font-size="14.00" fill="#000000">1</text>
</g>
<!-- 2 -->
<g id="node2" class="node">
<title>2</title>
<ellipse fill="none" stroke="#000000" cx="154" cy="-810" rx="27" ry="18"></ellipse>
<text text-anchor="middle" x="154" y="-805.8" font-family="Times,serif" font-size="14.00" fill="#000000">2</text>
</g>
<!-- 1&#45;&gt;2 -->
<g id="edge1" class="edge">
<title>1-&gt;2</title>
<path fill="none" stroke="#0000ff" d="M301.9382,-872.2898C272.1509,-859.7477 220.1321,-837.8451 186.3884,-823.6372"></path>
<polygon fill="#0000ff" stroke="#0000ff" points="187.5435,-820.326 176.9689,-819.6711 184.827,-826.7775 187.5435,-820.326"></polygon>
</g>
<!-- 3 -->
<g id="node3" class="node">
<title>3</title>
<ellipse fill="none" stroke="#000000" cx="422" cy="-378" rx="27" ry="18"></ellipse>
<text text-anchor="middle" x="422" y="-373.8" font-family="Times,serif" font-size="14.00" fill="#000000">3</text>
</g>
<!-- 1&#45;&gt;3 -->
<g id="edge2" class="edge">
<title>1-&gt;3</title>
<path fill="none" stroke="#ff0000" d="M348.3893,-872.9647C391.4703,-854.6165 479,-808.6448 479,-738 479,-738 479,-738 479,-522 479,-477.7935 455.4889,-430.9731 438.6664,-403.1305"></path>
<polygon fill="#ff0000" stroke="#ff0000" points="441.5172,-401.0871 433.2614,-394.4469 435.5743,-404.7862 441.5172,-401.0871"></polygon>
</g>
<!-- 4 -->
<g id="node4" class="node">
<title>4</title>
<ellipse fill="none" stroke="#000000" cx="154" cy="-738" rx="27" ry="18"></ellipse>
<text text-anchor="middle" x="154" y="-733.8" font-family="Times,serif" font-size="14.00" fill="#000000">4</text>
</g>
<!-- 2&#45;&gt;4 -->
<g id="edge3" class="edge">
<title>2-&gt;4</title>
<path fill="none" stroke="#0000ff" d="M154,-791.8314C154,-784.131 154,-774.9743 154,-766.4166"></path>
<polygon fill="#0000ff" stroke="#0000ff" points="157.5001,-766.4132 154,-756.4133 150.5001,-766.4133 157.5001,-766.4132"></polygon>
</g>
<!-- 5 -->
<g id="node5" class="node">
<title>5</title>
<ellipse fill="none" stroke="#000000" cx="54" cy="-522" rx="27" ry="18"></ellipse>
<text text-anchor="middle" x="54" y="-517.8" font-family="Times,serif" font-size="14.00" fill="#000000">5</text>
</g>
<!-- 2&#45;&gt;5 -->
<g id="edge4" class="edge">
<title>2-&gt;5</title>
<path fill="none" stroke="#0000ff" d="M141.1835,-793.7916C133.5447,-783.4685 124.1661,-769.5345 118,-756 85.7503,-685.2127 66.7221,-594.768 58.6239,-549.8749"></path>
<polygon fill="#0000ff" stroke="#0000ff" points="62.0647,-549.2325 56.8858,-539.9897 55.1705,-550.4448 62.0647,-549.2325"></polygon>
</g>
<!-- 6 -->
<g id="node6" class="node">
<title>6</title>
<ellipse fill="none" stroke="#000000" cx="384" cy="-306" rx="27" ry="18"></ellipse>
<text text-anchor="middle" x="384" y="-301.8" font-family="Times,serif" font-size="14.00" fill="#000000">6</text>
</g>
<!-- 3&#45;&gt;6 -->
<g id="edge5" class="edge">
<title>3-&gt;6</title>
<path fill="none" stroke="#ff0000" d="M412.9945,-360.937C408.5172,-352.4537 403.0048,-342.0092 397.993,-332.513"></path>
<polygon fill="#ff0000" stroke="#ff0000" points="400.9678,-330.6509 393.2048,-323.4407 394.7771,-333.9182 400.9678,-330.6509"></polygon>
</g>
<!-- 7 -->
<g id="node7" class="node">
<title>7</title>
<ellipse fill="none" stroke="#000000" cx="369" cy="-90" rx="27" ry="18"></ellipse>
<text text-anchor="middle" x="369" y="-85.8" font-family="Times,serif" font-size="14.00" fill="#000000">7</text>
</g>
<!-- 3&#45;&gt;7 -->
<g id="edge6" class="edge">
<title>3-&gt;7</title>
<path fill="none" stroke="#ff0000" d="M422.9972,-359.9462C423.6791,-341.6856 423.8638,-312.7059 420,-288 412.2645,-238.5386 400.2914,-228.5303 388,-180 382.7804,-159.3915 377.8514,-135.8788 374.3223,-118.0553"></path>
<polygon fill="#ff0000" stroke="#ff0000" points="377.7159,-117.1716 372.3652,-108.0272 370.8455,-118.5124 377.7159,-117.1716"></polygon>
</g>
<!-- 8 -->
<g id="node8" class="node">
<title>8</title>
<ellipse fill="none" stroke="#000000" cx="236" cy="-666" rx="27" ry="18"></ellipse>
<text text-anchor="middle" x="236" y="-661.8" font-family="Times,serif" font-size="14.00" fill="#000000">8</text>
</g>
<!-- 4&#45;&gt;8 -->
<g id="edge7" class="edge">
<title>4-&gt;8</title>
<path fill="none" stroke="#0000ff" d="M170.5939,-723.4297C182.3754,-713.0851 198.384,-699.0286 211.6145,-687.4116"></path>
<polygon fill="#0000ff" stroke="#0000ff" points="214.2256,-689.7767 219.4308,-680.5486 209.607,-684.5166 214.2256,-689.7767"></polygon>
</g>
<!-- 9 -->
<g id="node9" class="node">
<title>9</title>
<ellipse fill="none" stroke="#000000" cx="126" cy="-450" rx="27" ry="18"></ellipse>
<text text-anchor="middle" x="126" y="-445.8" font-family="Times,serif" font-size="14.00" fill="#000000">9</text>
</g>
<!-- 4&#45;&gt;9 -->
<g id="edge8" class="edge">
<title>4-&gt;9</title>
<path fill="none" stroke="#0000ff" d="M152.2485,-719.9843C147.5147,-671.2939 134.4385,-536.7961 128.7278,-478.0573"></path>
<polygon fill="#0000ff" stroke="#0000ff" points="132.2022,-477.6232 127.7509,-468.0089 125.235,-478.3007 132.2022,-477.6232"></polygon>
</g>
<!-- 10 -->
<g id="node10" class="node">
<title>10</title>
<ellipse fill="none" stroke="#000000" cx="54" cy="-450" rx="27" ry="18"></ellipse>
<text text-anchor="middle" x="54" y="-445.8" font-family="Times,serif" font-size="14.00" fill="#000000">10</text>
</g>
<!-- 5&#45;&gt;10 -->
<g id="edge9" class="edge">
<title>5-&gt;10</title>
<path fill="none" stroke="#0000ff" d="M54,-503.8314C54,-496.131 54,-486.9743 54,-478.4166"></path>
<polygon fill="#0000ff" stroke="#0000ff" points="57.5001,-478.4132 54,-468.4133 50.5001,-478.4133 57.5001,-478.4132"></polygon>
</g>
<!-- 11 -->
<g id="node11" class="node">
<title>11</title>
<ellipse fill="none" stroke="#000000" cx="236" cy="-450" rx="27" ry="18"></ellipse>
<text text-anchor="middle" x="236" y="-445.8" font-family="Times,serif" font-size="14.00" fill="#000000">11</text>
</g>
<!-- 5&#45;&gt;11 -->
<g id="edge10" class="edge">
<title>5-&gt;11</title>
<path fill="none" stroke="#0000ff" d="M77.4207,-512.7347C109.3639,-500.0978 166.7581,-477.3924 203.0357,-463.0408"></path>
<polygon fill="#0000ff" stroke="#0000ff" points="204.6579,-466.1631 212.6692,-459.2298 202.0828,-459.6539 204.6579,-466.1631"></polygon>
</g>
<!-- 12 -->
<g id="node12" class="node">
<title>12</title>
<ellipse fill="none" stroke="#000000" cx="462" cy="-234" rx="27" ry="18"></ellipse>
<text text-anchor="middle" x="462" y="-229.8" font-family="Times,serif" font-size="14.00" fill="#000000">12</text>
</g>
<!-- 6&#45;&gt;12 -->
<g id="edge11" class="edge">
<title>6-&gt;12</title>
<path fill="none" stroke="#ff0000" d="M400.1617,-291.0816C411.3214,-280.7802 426.3334,-266.923 438.7715,-255.4417"></path>
<polygon fill="#ff0000" stroke="#ff0000" points="441.1519,-258.0076 446.1259,-248.653 436.4039,-252.864 441.1519,-258.0076"></polygon>
</g>
<!-- 13 -->
<g id="node13" class="node">
<title>13</title>
<ellipse fill="none" stroke="#000000" cx="314" cy="-234" rx="27" ry="18"></ellipse>
<text text-anchor="middle" x="314" y="-229.8" font-family="Times,serif" font-size="14.00" fill="#000000">13</text>
</g>
<!-- 6&#45;&gt;13 -->
<g id="edge12" class="edge">
<title>6-&gt;13</title>
<path fill="none" stroke="#ff0000" d="M369.1548,-290.7307C359.5029,-280.803 346.749,-267.6847 335.9369,-256.5637"></path>
<polygon fill="#ff0000" stroke="#ff0000" points="338.3041,-253.9775 328.8238,-249.2473 333.2851,-258.8571 338.3041,-253.9775"></polygon>
</g>
<!-- 14 -->
<g id="node14" class="node">
<title>14</title>
<ellipse fill="none" stroke="#000000" cx="215" cy="-18" rx="27" ry="18"></ellipse>
<text text-anchor="middle" x="215" y="-13.8" font-family="Times,serif" font-size="14.00" fill="#000000">14</text>
</g>
<!-- 7&#45;&gt;14 -->
<g id="edge13" class="edge">
<title>7-&gt;14</title>
<path fill="none" stroke="#ff0000" d="M346.6071,-79.5306C320.1858,-67.1778 276.0915,-46.5622 246.2997,-32.6336"></path>
<polygon fill="#ff0000" stroke="#ff0000" points="247.7113,-29.43 237.1701,-28.3652 244.7466,-35.7712 247.7113,-29.43"></polygon>
</g>
<!-- 15 -->
<g id="node15" class="node">
<title>15</title>
<ellipse fill="none" stroke="#000000" cx="424" cy="-18" rx="27" ry="18"></ellipse>
<text text-anchor="middle" x="424" y="-13.8" font-family="Times,serif" font-size="14.00" fill="#000000">15</text>
</g>
<!-- 7&#45;&gt;15 -->
<g id="edge14" class="edge">
<title>7-&gt;15</title>
<path fill="none" stroke="#ff0000" d="M381.4804,-73.6621C388.5124,-64.4564 397.4347,-52.7764 405.2883,-42.4953"></path>
<polygon fill="#ff0000" stroke="#ff0000" points="408.28,-44.3446 411.569,-34.2733 402.7172,-40.0953 408.28,-44.3446"></polygon>
</g>
<!-- 17 -->
<g id="node16" class="node">
<title>17</title>
<ellipse fill="none" stroke="#000000" cx="236" cy="-594" rx="27" ry="18"></ellipse>
<text text-anchor="middle" x="236" y="-589.8" font-family="Times,serif" font-size="14.00" fill="#000000">17</text>
</g>
<!-- 8&#45;&gt;17 -->
<g id="edge15" class="edge">
<title>8-&gt;17</title>
<path fill="none" stroke="#0000ff" d="M236,-647.8314C236,-640.131 236,-630.9743 236,-622.4166"></path>
<polygon fill="#0000ff" stroke="#0000ff" points="239.5001,-622.4132 236,-612.4133 232.5001,-622.4133 239.5001,-622.4132"></polygon>
</g>
<!-- 18 -->
<g id="node17" class="node">
<title>18</title>
<ellipse fill="none" stroke="#000000" cx="244" cy="-378" rx="27" ry="18"></ellipse>
<text text-anchor="middle" x="244" y="-373.8" font-family="Times,serif" font-size="14.00" fill="#000000">18</text>
</g>
<!-- 8&#45;&gt;18 -->
<g id="edge16" class="edge">
<title>8-&gt;18</title>
<path fill="none" stroke="#0000ff" d="M250.1229,-650.2844C258.2535,-640.1468 267.6901,-626.2347 272,-612 295.1827,-535.4326 290.9522,-509.7227 272,-432 269.6116,-422.2052 265.1105,-412.2059 260.4047,-403.5168"></path>
<polygon fill="#0000ff" stroke="#0000ff" points="263.3342,-401.5905 255.3083,-394.6742 257.2694,-405.0859 263.3342,-401.5905"></polygon>
</g>
<!-- 9&#45;&gt;18 -->
<g id="edge18" class="edge">
<title>9-&gt;18</title>
<path fill="none" stroke="#0000ff" d="M146.0171,-437.7862C165.0035,-426.2013 193.7387,-408.6679 215.1879,-395.5803"></path>
<polygon fill="#0000ff" stroke="#0000ff" points="217.1713,-398.4702 223.8847,-390.2737 213.5253,-392.4947 217.1713,-398.4702"></polygon>
</g>
<!-- 16 -->
<g id="node18" class="node">
<title>16</title>
<ellipse fill="none" stroke="#000000" cx="27" cy="-378" rx="27" ry="18"></ellipse>
<text text-anchor="middle" x="27" y="-373.8" font-family="Times,serif" font-size="14.00" fill="#000000">16</text>
</g>
<!-- 9&#45;&gt;16 -->
<g id="edge17" class="edge">
<title>9-&gt;16</title>
<path fill="none" stroke="#0000ff" d="M107.3789,-436.4574C92.3065,-425.4956 70.8746,-409.9088 53.9313,-397.5864"></path>
<polygon fill="#0000ff" stroke="#0000ff" points="55.6836,-394.5331 45.5376,-391.4819 51.5664,-400.1943 55.6836,-394.5331"></polygon>
</g>
<!-- 10&#45;&gt;18 -->
<g id="edge20" class="edge">
<title>10-&gt;18</title>
<path fill="none" stroke="#0000ff" d="M75.4945,-438.6991C80.2212,-436.3702 85.2382,-434.0158 90,-432 130.3758,-414.9079 178.212,-398.7475 209.7348,-388.6381"></path>
<polygon fill="#0000ff" stroke="#0000ff" points="210.8973,-391.9412 219.3661,-385.575 208.7756,-385.2705 210.8973,-391.9412"></polygon>
</g>
<!-- 10&#45;&gt;16 -->
<g id="edge19" class="edge">
<title>10-&gt;16</title>
<path fill="none" stroke="#0000ff" d="M47.3258,-432.2022C44.2524,-424.0064 40.5384,-414.1024 37.1305,-405.0145"></path>
<polygon fill="#0000ff" stroke="#0000ff" points="40.3858,-403.7274 33.5974,-395.593 33.8315,-406.1853 40.3858,-403.7274"></polygon>
</g>
<!-- 11&#45;&gt;17 -->
<g id="edge21" class="edge">
<title>11-&gt;17</title>
<path fill="none" stroke="#0000ff" d="M236,-468.0896C236,-492.5727 236,-536.5174 236,-565.4713"></path>
<polygon fill="#0000ff" stroke="#0000ff" points="232.5001,-565.7623 236,-575.7623 239.5001,-565.7623 232.5001,-565.7623"></polygon>
</g>
<!-- 11&#45;&gt;18 -->
<g id="edge22" class="edge">
<title>11-&gt;18</title>
<path fill="none" stroke="#0000ff" d="M238.0187,-431.8314C238.8743,-424.131 239.8917,-414.9743 240.8426,-406.4166"></path>
<polygon fill="#0000ff" stroke="#0000ff" points="244.3283,-406.7386 241.9541,-396.4133 237.3711,-405.9656 244.3283,-406.7386"></polygon>
</g>
<!-- 12&#45;&gt;17 -->
<g id="edge23" class="edge">
<title>12-&gt;17</title>
<path fill="none" stroke="#ff0000" d="M466.0067,-252.0587C471.9621,-283.134 480.2209,-348.0031 458,-396 417.353,-483.7972 317.3099,-549.1292 266.57,-577.8582"></path>
<polygon fill="#ff0000" stroke="#ff0000" points="264.7333,-574.8747 257.6949,-582.7937 268.1355,-580.9924 264.7333,-574.8747"></polygon>
</g>
<!-- 19 -->
<g id="node19" class="node">
<title>19</title>
<ellipse fill="none" stroke="#000000" cx="424" cy="-162" rx="27" ry="18"></ellipse>
<text text-anchor="middle" x="424" y="-157.8" font-family="Times,serif" font-size="14.00" fill="#000000">19</text>
</g>
<!-- 12&#45;&gt;19 -->
<g id="edge24" class="edge">
<title>12-&gt;19</title>
<path fill="none" stroke="#ff0000" d="M452.9945,-216.937C448.5172,-208.4537 443.0048,-198.0092 437.993,-188.513"></path>
<polygon fill="#ff0000" stroke="#ff0000" points="440.9678,-186.6509 433.2048,-179.4407 434.7771,-189.9182 440.9678,-186.6509"></polygon>
</g>
<!-- 13&#45;&gt;17 -->
<g id="edge25" class="edge">
<title>13-&gt;17</title>
<path fill="none" stroke="#ff0000" d="M311.3973,-252.0333C305.5687,-291.4599 290.5143,-388.1901 272,-468 264.0474,-502.2816 252.5613,-541.1386 244.7156,-566.5249"></path>
<polygon fill="#ff0000" stroke="#ff0000" points="241.3331,-565.615 241.6987,-576.2036 248.016,-567.6981 241.3331,-565.615"></polygon>
</g>
<!-- 13&#45;&gt;18 -->
<g id="edge26" class="edge">
<title>13-&gt;18</title>
<path fill="none" stroke="#ff0000" d="M305.5264,-251.4314C293.4216,-276.3326 271.0799,-322.2927 256.9094,-351.4434"></path>
<polygon fill="#ff0000" stroke="#ff0000" points="253.6678,-350.1064 252.4436,-360.6302 259.9634,-353.1667 253.6678,-350.1064"></polygon>
</g>
<!-- 14&#45;&gt;17 -->
<g id="edge27" class="edge">
<title>14-&gt;17</title>
<path fill="none" stroke="#ff0000" d="M207.3101,-35.3446C196.2064,-62.0126 177,-114.9424 177,-162 177,-234 177,-234 177,-234 177,-338.5012 180.4552,-365.3428 200,-468 206.5819,-502.5709 218.3538,-541.3676 226.6404,-566.6608"></path>
<polygon fill="#ff0000" stroke="#ff0000" points="223.3688,-567.9145 229.8444,-576.3 230.0114,-565.7065 223.3688,-567.9145"></polygon>
</g>
<!-- 14&#45;&gt;18 -->
<g id="edge28" class="edge">
<title>14-&gt;18</title>
<path fill="none" stroke="#ff0000" d="M215,-36.1854C215,-63.5017 215,-116.75 215,-162 215,-234 215,-234 215,-234 215,-275.1099 226.4991,-321.5451 235.0154,-350.298"></path>
<polygon fill="#ff0000" stroke="#ff0000" points="231.7245,-351.5057 237.9912,-360.0486 238.4197,-349.4624 231.7245,-351.5057"></polygon>
</g>
<!-- 15&#45;&gt;17 -->
<g id="edge29" class="edge">
<title>15-&gt;17</title>
<path fill="none" stroke="#ff0000" d="M441.0576,-31.9956C467.9059,-55.7114 517,-106.6455 517,-162 517,-378 517,-378 517,-378 517,-500.5312 346.9736,-563.133 271.4365,-584.8989"></path>
<polygon fill="#ff0000" stroke="#ff0000" points="270.1178,-581.6335 261.4325,-587.7011 272.0059,-588.374 270.1178,-581.6335"></polygon>
</g>
<!-- 15&#45;&gt;19 -->
<g id="edge30" class="edge">
<title>15-&gt;19</title>
<path fill="none" stroke="#ff0000" d="M424,-36.0896C424,-60.5727 424,-104.5174 424,-133.4713"></path>
<polygon fill="#ff0000" stroke="#ff0000" points="420.5001,-133.7623 424,-143.7623 427.5001,-133.7623 420.5001,-133.7623"></polygon>
</g>
<!-- 17&#45;&gt;4 -->
<g id="edge33" class="edge">
<title>17-&gt;4</title>
<path fill="none" stroke="#0000ff" d="M224.1379,-610.7039C216.8582,-621.2135 207.522,-635.1694 200,-648 187.7945,-668.8195 175.427,-693.2448 166.5942,-711.3927"></path>
<polygon fill="#0000ff" stroke="#0000ff" points="163.2651,-710.2386 162.0742,-720.7663 169.5703,-713.279 163.2651,-710.2386"></polygon>
</g>
<!-- 17&#45;&gt;5 -->
<g id="edge34" class="edge">
<title>17-&gt;5</title>
<path fill="none" stroke="#0000ff" d="M212.5793,-584.7347C180.6361,-572.0978 123.2419,-549.3924 86.9643,-535.0408"></path>
<polygon fill="#0000ff" stroke="#0000ff" points="87.9172,-531.6539 77.3308,-531.2298 85.3421,-538.1631 87.9172,-531.6539"></polygon>
</g>
<!-- 18&#45;&gt;6 -->
<g id="edge35" class="edge">
<title>18-&gt;6</title>
<path fill="none" stroke="#ff0000" d="M265.5682,-366.9078C288.931,-354.8927 326.4113,-335.617 352.9434,-321.9719"></path>
<polygon fill="#ff0000" stroke="#ff0000" points="354.8845,-324.9095 362.1766,-317.2234 351.683,-318.6845 354.8845,-324.9095"></polygon>
</g>
<!-- 18&#45;&gt;7 -->
<g id="edge36" class="edge">
<title>18-&gt;7</title>
<path fill="none" stroke="#ff0000" d="M245.3437,-359.75C248.1469,-328.9369 256.2747,-265.1524 278,-216 295.5433,-176.3092 326.9573,-136.7615 347.8915,-112.8408"></path>
<polygon fill="#ff0000" stroke="#ff0000" points="350.5233,-115.1482 354.554,-105.35 345.2928,-110.496 350.5233,-115.1482"></polygon>
</g>
<!-- 16&#45;&gt;4 -->
<g id="edge31" class="edge">
<title>16-&gt;4</title>
<path fill="none" stroke="#00ff00" d="M20.3473,-395.7104C16.7964,-406.1139 12.7964,-419.6139 11,-432 4.0961,-479.6027 1.534,-494.8054 18,-540 43.7718,-610.7365 100.8267,-680.1709 132.228,-714.9635"></path>
<polygon fill="#00ff00" stroke="#00ff00" points="129.924,-717.6303 139.2562,-722.6462 135.0888,-712.9054 129.924,-717.6303"></polygon>
</g>
<!-- 16&#45;&gt;5 -->
<g id="edge32" class="edge">
<title>16-&gt;5</title>
<path fill="none" stroke="#00ff00" d="M21.2691,-395.644C16.1904,-414.0794 10.6283,-443.6528 18,-468 21.2661,-478.7873 27.4764,-489.3892 33.8313,-498.3037"></path>
<polygon fill="#00ff00" stroke="#00ff00" points="31.0487,-500.4268 39.8771,-506.2844 36.6285,-496.1999 31.0487,-500.4268"></polygon>
</g>
<!-- 19&#45;&gt;6 -->
<g id="edge37" class="edge">
<title>19-&gt;6</title>
<path fill="none" stroke="#a020f0" d="M419.0777,-179.7204C412.2478,-204.308 399.8271,-249.0224 391.7472,-278.1102"></path>
<polygon fill="#a020f0" stroke="#a020f0" points="388.2893,-277.4815 388.9852,-288.0535 395.034,-279.3551 388.2893,-277.4815"></polygon>
</g>
<!-- 19&#45;&gt;7 -->
<g id="edge38" class="edge">
<title>19-&gt;7</title>
<path fill="none" stroke="#a020f0" d="M411.5196,-145.6621C404.4876,-136.4564 395.5653,-124.7764 387.7117,-114.4953"></path>
<polygon fill="#a020f0" stroke="#a020f0" points="390.2828,-112.0953 381.431,-106.2733 384.72,-116.3446 390.2828,-112.0953"></polygon>
</g>
</g>
</svg>